<svg xmlns="http://www.w3.org/2000/svg" viewBox="0 0 100 100" width="100" height="100">
  <!-- Potion Bottle -->
  <path d="M40,30 L40,20 L60,20 L60,30 L70,50 Q70,80 50,80 Q30,80 30,50 Z" fill="#9370DB" stroke="#483D8B" stroke-width="2" />
  
  <!-- Bottle Neck -->
  <rect x="45" y="15" width="10" height="5" fill="#483D8B" />
  
  <!-- Bottle Cork -->
  <rect x="43" y="10" width="14" height="5" fill="#8B4513" rx="2" ry="2" />
  
  <!-- Potion Liquid -->
  <path d="M35,50 Q35,75 50,75 Q65,75 65,50 L60,35 L40,35 Z" fill="#FF00FF" opacity="0.7" />
  
  <!-- Bubbles -->
  <circle cx="45" cy="45" r="2" fill="white" opacity="0.6" />
  <circle cx="55" cy="50" r="3" fill="white" opacity="0.6" />
  <circle cx="48" cy="60" r="2.5" fill="white" opacity="0.6" />
  
  <!-- Magic Sparkles -->
  <g class="sparkles" opacity="0">
    <circle cx="35" cy="40" r="1" fill="#FF00FF" />
    <circle cx="65" cy="40" r="1" fill="#FF00FF" />
    <circle cx="40" cy="70" r="1" fill="#FF00FF" />
    <circle cx="60" cy="70" r="1" fill="#FF00FF" />
    <circle cx="50" cy="85" r="1" fill="#FF00FF" />
  </g>
</svg>