<svg xmlns="http://www.w3.org/2000/svg" viewBox="0 0 800 600" width="800" height="600">
  <!-- Hogwarts Castle Silhouette -->
  <g fill="#2a2a2a">
    <!-- Main Castle Structure -->
    <path d="M350,500 L350,300 L380,280 L380,250 L400,230 L420,250 L420,280 L450,300 L450,500 Z" />
    
    <!-- Left Tower -->
    <path d="M300,500 L300,320 L320,300 L340,320 L340,500 Z" />
    
    <!-- Right Tower -->
    <path d="M460,500 L460,320 L480,300 L500,320 L500,500 Z" />
    
    <!-- Far Left Tower -->
    <path d="M250,500 L250,350 L260,330 L270,350 L270,500 Z" />
    
    <!-- Far Right Tower -->
    <path d="M530,500 L530,350 L540,330 L550,350 L550,500 Z" />
    
    <!-- Astronomy Tower -->
    <path d="M200,500 L200,380 L210,360 L220,380 L220,500 Z" />
    
    <!-- Tallest Tower -->
    <path d="M400,230 L400,150 L410,130 L420,150 L420,230 Z" />
    
    <!-- Small Spires -->
    <path d="M320,300 L320,280 L325,270 L330,280 L330,300 Z" />
    <path d="M480,300 L480,280 L485,270 L490,280 L490,300 Z" />
    <path d="M410,130 L410,110 L415,100 L420,110 L420,130 Z" />
  </g>
  
  <!-- Stars in Background -->
  <g fill="#FFD700">
    <circle cx="100" cy="100" r="1" />
    <circle cx="200" cy="150" r="1.5" />
    <circle cx="300" cy="80" r="1" />
    <circle cx="500" cy="120" r="1.5" />
    <circle cx="600" cy="90" r="1" />
    <circle cx="700" cy="130" r="1.5" />
    <circle cx="150" cy="200" r="1" />
    <circle cx="250" cy="180" r="1.5" />
    <circle cx="350" cy="150" r="1" />
    <circle cx="450" cy="170" r="1.5" />
    <circle cx="550" cy="190" r="1" />
    <circle cx="650" cy="160" r="1.5" />
    <circle cx="750" cy="140" r="1" />
  </g>
  
  <!-- Moon -->
  <circle cx="650" cy="100" r="40" fill="#E6E6E6" />
  
  <!-- Clouds -->
  <path d="M100,250 Q150,220 200,250 T300,250 T400,250 T500,250" fill="#E6E6E6" opacity="0.5" />
  <path d="M700,280 Q650,250 600,280 T500,280 T400,280" fill="#E6E6E6" opacity="0.3" />
</svg>